<svg width="376" height="248" viewBox="0 0 376 248" fill="none" xmlns="http://www.w3.org/2000/svg">
<ellipse cx="187.964" cy="240.706" rx="187.964" ry="7.29412" fill="#F0F3F2"/>
<g clip-path="url(#clip0_3281_7443)">
<path fill-rule="evenodd" clip-rule="evenodd" d="M112.508 165.458C134.022 165.458 151.455 182.927 151.455 204.484C151.455 226.042 134.022 243.511 112.508 243.511C90.9935 243.511 73.5601 226.042 73.5601 204.484C73.5601 182.942 90.9935 165.458 112.508 165.458ZM112.508 175.485C96.5296 175.485 83.567 188.474 83.567 204.484C83.567 220.495 96.5296 233.484 112.508 233.484C128.486 233.484 141.448 220.495 141.448 204.484C141.448 188.474 128.486 175.485 112.508 175.485Z" fill="#000044"/>
<path fill-rule="evenodd" clip-rule="evenodd" d="M112.508 175.485C128.486 175.485 141.448 188.474 141.448 204.485C141.448 220.495 128.486 233.484 112.508 233.484C96.5295 233.484 83.5669 220.495 83.5669 204.485C83.5669 188.474 96.5295 175.485 112.508 175.485ZM112.508 186.414C102.546 186.414 94.459 194.502 94.459 204.5C94.459 214.482 102.531 222.585 112.508 222.585C122.47 222.585 130.556 214.497 130.556 204.5C130.556 194.502 122.47 186.414 112.508 186.414Z" fill="#A9C2C2"/>
<path d="M112.508 225.005C101.196 225.005 92.0292 215.82 92.0292 204.485C92.0292 193.149 101.196 183.964 112.508 183.964C123.821 183.964 132.987 193.149 132.987 204.485C132.987 215.82 123.821 225.005 112.508 225.005ZM112.508 177.921C97.8654 177.921 85.998 189.812 85.998 204.485C85.998 219.157 97.8654 231.049 112.508 231.049C127.151 231.049 139.019 219.157 139.019 204.485C139.019 189.812 127.151 177.921 112.508 177.921Z" fill="#7E9191"/>
<path fill-rule="evenodd" clip-rule="evenodd" d="M108.982 198.05C109.462 197.795 109.957 197.584 110.467 197.434L111.443 184.791H112.508H113.573L114.548 197.434C115.058 197.584 115.553 197.795 116.034 198.05L125.635 189.797L126.401 190.549L127.166 191.315L118.929 200.937C119.184 201.418 119.394 201.914 119.544 202.425L132.162 203.402V204.47V205.552L119.544 206.529C119.394 207.04 119.184 207.536 118.929 208.017L127.166 217.639L126.401 218.406L125.635 219.157L116.034 210.904C115.553 211.159 115.058 211.37 114.548 211.52L113.573 224.163H112.508H111.443L110.467 211.52C109.957 211.37 109.462 211.159 108.982 210.904L99.3803 219.157L98.6151 218.406L97.85 217.639L106.087 208.017C105.832 207.536 105.622 207.04 105.471 206.529L92.854 205.552V204.47V203.402L105.471 202.425C105.622 201.914 105.832 201.418 106.087 200.937L97.85 191.315L98.6151 190.549L99.3803 189.797L108.982 198.05Z" fill="#A9C2C2"/>
<path fill-rule="evenodd" clip-rule="evenodd" d="M280.871 213.294C285.717 213.294 289.663 209.34 289.663 204.485C289.663 199.629 285.717 195.675 280.871 195.675C276.025 195.675 272.079 199.629 272.079 204.485C272.064 209.34 276.025 213.294 280.871 213.294Z" fill="#A9C2C2"/>
<path fill-rule="evenodd" clip-rule="evenodd" d="M287.082 198.261C290.518 201.703 290.518 207.281 287.082 210.723C283.646 214.166 278.08 214.166 274.645 210.723C271.209 207.281 271.209 201.703 274.645 198.261C278.08 194.818 283.646 194.818 287.082 198.261Z" fill="#A9C2C2"/>
<path fill-rule="evenodd" clip-rule="evenodd" d="M289.663 204.485C289.663 209.355 285.732 213.294 280.871 213.294C276.01 213.294 272.079 209.355 272.079 204.485C272.079 199.614 276.01 195.675 280.871 195.675C285.717 195.675 289.663 199.614 289.663 204.485Z" fill="#A9C2C2"/>
<path fill-rule="evenodd" clip-rule="evenodd" d="M287.082 210.723C283.646 214.166 278.08 214.166 274.645 210.723C271.209 207.281 271.209 201.703 274.645 198.261C278.08 194.818 283.646 194.818 287.082 198.261C290.518 201.703 290.518 207.281 287.082 210.723Z" fill="#A9C2C2"/>
<path fill-rule="evenodd" clip-rule="evenodd" d="M280.871 213.294C276.01 213.294 272.079 209.355 272.079 204.485C272.079 199.614 276.01 195.675 280.871 195.675C285.732 195.675 289.663 199.614 289.663 204.485C289.663 209.355 285.717 213.294 280.871 213.294Z" fill="#A9C2C2"/>
<path fill-rule="evenodd" clip-rule="evenodd" d="M274.645 210.723C271.209 207.281 271.209 201.703 274.645 198.261C278.08 194.818 283.646 194.818 287.082 198.261C290.518 201.703 290.518 207.281 287.082 210.723C283.646 214.166 278.08 214.166 274.645 210.723Z" fill="#A9C2C2"/>
<path fill-rule="evenodd" clip-rule="evenodd" d="M272.064 204.485C272.064 199.614 275.995 195.675 280.856 195.675C285.717 195.675 289.648 199.614 289.648 204.485C289.648 209.355 285.717 213.294 280.856 213.294C276.01 213.294 272.064 209.355 272.064 204.485Z" fill="#A9C2C2"/>
<path fill-rule="evenodd" clip-rule="evenodd" d="M280.872 165.458C302.386 165.458 319.819 182.927 319.819 204.484C319.819 226.042 302.386 243.511 280.872 243.511C259.357 243.511 241.924 226.042 241.924 204.484C241.924 182.942 259.357 165.458 280.872 165.458ZM280.872 175.485C264.893 175.485 251.931 188.474 251.931 204.484C251.931 220.495 264.893 233.484 280.872 233.484C296.85 233.484 309.812 220.495 309.812 204.484C309.812 188.474 296.85 175.485 280.872 175.485Z" fill="#000044"/>
<path fill-rule="evenodd" clip-rule="evenodd" d="M280.871 175.485C296.85 175.485 309.812 188.474 309.812 204.485C309.812 220.495 296.85 233.484 280.871 233.484C264.893 233.484 251.931 220.495 251.931 204.485C251.931 188.474 264.878 175.485 280.871 175.485ZM280.871 186.414C270.909 186.414 262.823 194.502 262.823 204.5C262.823 214.482 270.894 222.585 280.871 222.585C290.833 222.585 298.92 214.497 298.92 204.5C298.905 194.502 290.833 186.414 280.871 186.414Z" fill="#A9C2C2"/>
<path d="M280.871 225.005C269.559 225.005 260.392 215.82 260.392 204.485C260.392 193.149 269.559 183.964 280.871 183.964C292.183 183.964 301.35 193.149 301.35 204.485C301.335 215.82 292.168 225.005 280.871 225.005ZM280.871 177.921C266.228 177.921 254.361 189.812 254.361 204.485C254.361 219.157 266.228 231.049 280.871 231.049C295.514 231.049 307.381 219.157 307.381 204.485C307.381 189.812 295.514 177.921 280.871 177.921Z" fill="#7E9191"/>
<path fill-rule="evenodd" clip-rule="evenodd" d="M277.331 198.05C277.811 197.795 278.306 197.584 278.816 197.434L279.791 184.791H280.856H281.922L282.897 197.434C283.407 197.584 283.902 197.795 284.382 198.05L293.984 189.797L294.734 190.549L295.499 191.315L287.263 200.937C287.533 201.418 287.728 201.914 287.878 202.425L300.495 203.402V204.47V205.552L287.878 206.529C287.728 207.04 287.518 207.536 287.263 208.017L295.499 217.639L294.734 218.406L293.969 219.157L284.367 210.904C283.887 211.159 283.392 211.37 282.882 211.52L281.907 224.163H280.841H279.776L278.801 211.52C278.291 211.37 277.796 211.159 277.316 210.904L267.714 219.157L266.949 218.406L266.183 217.639L274.42 208.017C274.15 207.536 273.955 207.04 273.805 206.529L261.188 205.552V204.47V203.402L273.805 202.425C273.955 201.914 274.165 201.418 274.42 200.937L266.183 191.315L266.949 190.549L267.714 189.797L277.331 198.05Z" fill="#A9C2C2"/>
<path fill-rule="evenodd" clip-rule="evenodd" d="M247.61 155.19L254.677 151.101L284.113 202.861C285.223 204.815 284.203 206.845 282.627 208.438C281.037 210.032 278.171 208.889 277.061 206.95L247.61 155.19Z" fill="black"/>
<path fill-rule="evenodd" clip-rule="evenodd" d="M280.872 154.589C285.402 154.589 289.798 155.205 293.984 156.332C295.244 156.678 296.16 157.595 296.49 158.858C296.82 160.121 296.49 161.384 295.559 162.301L238.773 219.202C237.843 220.134 236.598 220.465 235.337 220.134C234.077 219.804 233.162 218.887 232.817 217.624C231.677 213.444 231.077 209.04 231.077 204.485C231.077 176.928 253.371 154.589 280.872 154.589Z" fill="#9F0B0F"/>
<path fill-rule="evenodd" clip-rule="evenodd" d="M111.023 144.847L188.288 143.719C173.705 172.418 173.06 193.179 188.288 210.483H152.881L150.375 208.002H65.1137C62.9532 208.002 61.0929 207.16 59.6676 205.522C58.2423 203.898 57.6572 201.929 57.9422 199.794C61.828 170.644 79.6065 148.996 107.872 147.493C111.248 147.312 111.653 145.599 111.023 144.847Z" fill="#B0040A"/>
<path fill-rule="evenodd" clip-rule="evenodd" d="M176.541 206.574H180.442C168.559 188.038 172.865 167.487 182.002 147.688L178.941 147.733C176.256 147.778 173.99 149.342 173 151.838C166.249 168.946 163.533 186.354 170.585 202.65C171.65 205.101 173.9 206.574 176.541 206.574Z" fill="#CA0007"/>
<path fill-rule="evenodd" clip-rule="evenodd" d="M152.146 208.754H186.593C197.545 208.754 212.278 210.332 219.165 198.877L249.396 148.575C253.236 142.171 253.281 137.3 251.196 128.596L244.295 99.7316C243.68 97.1609 243.394 95.1464 245.855 95.1464H249.021C252.051 95.1464 254.602 97.1609 255.322 100.107L261.443 125.318C262.673 130.415 266.874 147.267 264.189 151.777L227.206 213.956H224.926H210.688H151.426C151.756 212.257 151.996 210.528 152.146 208.754Z" fill="#CA0007"/>
<path fill-rule="evenodd" clip-rule="evenodd" d="M226.38 213.535H150.825C150.33 213.535 149.91 213.941 149.91 214.452V217.834C149.91 218.345 150.315 218.751 150.825 218.751H226.38C226.875 218.751 227.295 218.345 227.295 217.834V214.452C227.295 213.941 226.875 213.535 226.38 213.535Z" fill="#B0040A"/>
<path fill-rule="evenodd" clip-rule="evenodd" d="M112.403 152.935C140.263 152.935 163.278 173.711 166.864 200.636C167.119 202.56 166.594 204.319 165.318 205.777C164.043 207.236 162.378 208.002 160.442 208.002H64.3633C62.4279 208.002 60.7626 207.251 59.4874 205.777C58.2121 204.319 57.687 202.56 57.9421 200.636C61.5278 173.711 84.5423 152.935 112.403 152.935Z" fill="#CA0007"/>
<path fill-rule="evenodd" clip-rule="evenodd" d="M112.403 158.257C136.048 158.257 155.597 175.891 158.642 198.757C158.867 200.395 158.417 201.884 157.322 203.117C157.187 203.282 157.037 203.432 156.887 203.568C150.916 184.655 133.257 170.93 112.403 170.93C91.549 170.93 73.8905 184.64 67.9194 203.568C67.7693 203.432 67.6193 203.282 67.4843 203.117C66.4041 201.869 65.954 200.38 66.164 198.757C69.2096 175.891 88.7585 158.257 112.403 158.257Z" fill="#B10B09"/>
<path fill-rule="evenodd" clip-rule="evenodd" d="M109.657 130.55H188.588C189.533 130.55 190.298 131.317 190.298 132.264V143.118C190.298 144.065 189.533 144.832 188.588 144.832H109.657C108.712 144.832 107.947 144.065 107.947 143.118V132.264C107.932 131.317 108.712 130.55 109.657 130.55Z" fill="black"/>
<path fill-rule="evenodd" clip-rule="evenodd" d="M52.5861 43.9577H143.534C145.304 43.9577 146.745 45.4009 146.745 47.1749V127.138C146.745 128.912 145.304 130.355 143.534 130.355H52.5861C50.8158 130.37 49.3755 128.912 49.3755 127.138V47.1899C49.3755 45.4159 50.8158 43.9577 52.5861 43.9577Z" fill="#CA0007"/>
<path fill-rule="evenodd" clip-rule="evenodd" d="M57.8071 48.9037H138.343C139.903 48.9037 141.194 50.1816 141.194 51.7601V81.1354C112.433 92.8314 75.1205 65.6059 54.9565 103.926V51.7601C54.9565 50.1966 56.2318 48.9037 57.8071 48.9037Z" fill="#B10B09"/>
<path d="M68.1813 105.274V95.4805H74.6656V97.1877H70.2519V99.5213H74.2353V101.228H70.2519V105.274H68.1813ZM75.0938 105.274V97.9289H77.0688V99.2104H77.1453C77.2792 98.7545 77.5039 98.4102 77.8195 98.1775C78.1352 97.9416 78.4986 97.8237 78.9098 97.8237C79.0119 97.8237 79.1218 97.83 79.2398 97.8428C79.3578 97.8555 79.4614 97.8731 79.5506 97.8954V99.703C79.455 99.6743 79.3227 99.6488 79.1537 99.6265C78.9848 99.6041 78.8301 99.593 78.6899 99.593C78.3902 99.593 78.1224 99.6583 77.8865 99.7891C77.6538 99.9166 77.4689 100.095 77.3318 100.325C77.1979 100.554 77.1309 100.819 77.1309 101.118V105.274H75.0938ZM82.8014 105.417C82.0458 105.417 81.3955 105.264 80.8503 104.958C80.3084 104.649 79.8907 104.212 79.5974 103.648C79.3041 103.081 79.1575 102.41 79.1575 101.635C79.1575 100.879 79.3041 100.216 79.5974 99.6456C79.8907 99.0749 80.3036 98.6302 80.836 98.3114C81.3716 97.9926 81.9996 97.8332 82.7201 97.8332C83.2047 97.8332 83.6558 97.9113 84.0734 98.0675C84.4942 98.2206 84.8608 98.4517 85.1732 98.7609C85.4888 99.0702 85.7343 99.4591 85.9097 99.9277C86.085 100.393 86.1727 100.938 86.1727 101.563V102.123H79.9704V100.86H84.2551C84.2551 100.567 84.1913 100.307 84.0638 100.081C83.9363 99.8544 83.7594 99.6775 83.533 99.55C83.3099 99.4192 83.05 99.3539 82.7536 99.3539C82.4443 99.3539 82.1702 99.4256 81.9311 99.5691C81.6951 99.7094 81.5102 99.899 81.3763 100.138C81.2424 100.374 81.1739 100.637 81.1707 100.927V102.127C81.1707 102.491 81.2377 102.805 81.3716 103.069C81.5086 103.334 81.7015 103.538 81.9502 103.682C82.1988 103.825 82.4937 103.897 82.8348 103.897C83.0612 103.897 83.2684 103.865 83.4565 103.801C83.6446 103.737 83.8056 103.642 83.9395 103.514C84.0734 103.387 84.1754 103.23 84.2455 103.046L86.1296 103.17C86.034 103.623 85.8379 104.018 85.5414 104.356C85.2482 104.691 84.8688 104.952 84.4033 105.14C83.9411 105.325 83.4071 105.417 82.8014 105.417ZM92.8055 100.023L90.9405 100.138C90.9086 99.9787 90.8401 99.8353 90.7349 99.7078C90.6297 99.5771 90.491 99.4734 90.3188 99.3969C90.1499 99.3172 89.9474 99.2774 89.7115 99.2774C89.3959 99.2774 89.1297 99.3443 88.9129 99.4782C88.6962 99.6089 88.5878 99.7843 88.5878 100.004C88.5878 100.18 88.6579 100.328 88.7982 100.449C88.9384 100.57 89.1791 100.667 89.5203 100.741L90.8496 101.008C91.5638 101.155 92.0961 101.391 92.4468 101.716C92.7975 102.041 92.9728 102.469 92.9728 102.998C92.9728 103.479 92.831 103.902 92.5472 104.265C92.2667 104.628 91.881 104.912 91.39 105.116C90.9022 105.317 90.3396 105.417 89.702 105.417C88.7296 105.417 87.9549 105.215 87.3779 104.81C86.8041 104.402 86.4678 103.847 86.3689 103.146L88.3726 103.041C88.4331 103.337 88.5798 103.564 88.8125 103.72C89.0452 103.873 89.3433 103.949 89.7067 103.949C90.0638 103.949 90.3507 103.881 90.5675 103.744C90.7875 103.603 90.8991 103.423 90.9022 103.203C90.8991 103.018 90.8209 102.867 90.6679 102.749C90.5149 102.628 90.279 102.536 89.9602 102.472L88.6882 102.218C87.9709 102.075 87.4369 101.826 87.0862 101.472C86.7387 101.118 86.565 100.667 86.565 100.119C86.565 99.6472 86.6925 99.2407 86.9475 98.8996C87.2058 98.5585 87.5676 98.2955 88.0331 98.1106C88.5017 97.9257 89.05 97.8332 89.6781 97.8332C90.6058 97.8332 91.3358 98.0293 91.8682 98.4214C92.4038 98.8135 92.7162 99.3475 92.8055 100.023ZM95.4848 101.028V105.274H93.4476V95.4805H95.4274V99.2248H95.5135C95.6792 98.7912 95.947 98.4517 96.3168 98.2062C96.6866 97.9576 97.1505 97.8332 97.7084 97.8332C98.2185 97.8332 98.6632 97.9448 99.0426 98.168C99.4251 98.3879 99.7216 98.7051 99.932 99.1196C100.146 99.5308 100.251 100.023 100.248 100.597V105.274H98.2105V100.961C98.2137 100.508 98.0989 100.156 97.8662 99.9038C97.6367 99.652 97.3147 99.526 96.9002 99.526C96.6229 99.526 96.3774 99.585 96.1638 99.703C95.9534 99.8209 95.7876 99.9931 95.6665 100.219C95.5485 100.443 95.488 100.712 95.4848 101.028ZM109.722 98.9092H107.628C107.589 98.6382 107.511 98.3975 107.393 98.1871C107.275 97.9735 107.124 97.7918 106.939 97.6419C106.754 97.4921 106.541 97.3773 106.298 97.2976C106.059 97.2179 105.799 97.1781 105.519 97.1781C105.012 97.1781 104.57 97.304 104.194 97.5559C103.818 97.8045 103.526 98.168 103.319 98.6462C103.112 99.1212 103.008 99.6982 103.008 100.377C103.008 101.075 103.112 101.662 103.319 102.137C103.529 102.612 103.823 102.971 104.199 103.213C104.575 103.455 105.01 103.576 105.504 103.576C105.782 103.576 106.038 103.54 106.274 103.466C106.513 103.393 106.725 103.286 106.91 103.146C107.095 103.003 107.248 102.829 107.369 102.625C107.494 102.421 107.58 102.188 107.628 101.927L109.722 101.936C109.668 102.386 109.532 102.819 109.316 103.237C109.102 103.651 108.814 104.023 108.45 104.351C108.09 104.676 107.659 104.934 107.159 105.126C106.662 105.314 106.099 105.408 105.471 105.408C104.597 105.408 103.816 105.21 103.128 104.815C102.442 104.42 101.9 103.847 101.502 103.098C101.107 102.349 100.909 101.442 100.909 100.377C100.909 99.3093 101.11 98.4007 101.511 97.6515C101.913 96.9023 102.458 96.3317 103.147 95.9396C103.835 95.5442 104.61 95.3466 105.471 95.3466C106.038 95.3466 106.564 95.4263 107.049 95.5857C107.537 95.7451 107.969 95.9778 108.345 96.2839C108.721 96.5867 109.027 96.9581 109.263 97.3981C109.502 97.838 109.655 98.3417 109.722 98.9092ZM112.455 105.413C111.987 105.413 111.569 105.331 111.202 105.169C110.836 105.003 110.546 104.759 110.332 104.437C110.122 104.112 110.016 103.707 110.016 103.223C110.016 102.814 110.091 102.472 110.241 102.194C110.391 101.917 110.595 101.694 110.853 101.525C111.111 101.356 111.405 101.228 111.733 101.142C112.065 101.056 112.412 100.996 112.776 100.961C113.203 100.916 113.547 100.875 113.809 100.836C114.07 100.795 114.26 100.734 114.378 100.655C114.496 100.575 114.555 100.457 114.555 100.301V100.272C114.555 99.9692 114.459 99.7349 114.268 99.5691C114.079 99.4033 113.812 99.3204 113.464 99.3204C113.098 99.3204 112.806 99.4017 112.589 99.5643C112.372 99.7237 112.229 99.9245 112.159 100.167L110.275 100.014C110.37 99.5675 110.558 99.1817 110.839 98.8566C111.119 98.5282 111.481 98.2764 111.924 98.101C112.371 97.9225 112.887 97.8332 113.474 97.8332C113.882 97.8332 114.272 97.881 114.645 97.9767C115.022 98.0723 115.355 98.2206 115.645 98.4214C115.938 98.6222 116.169 98.8805 116.338 99.1961C116.507 99.5085 116.592 99.8831 116.592 100.32V105.274H114.66V104.255H114.602C114.484 104.485 114.327 104.687 114.129 104.863C113.931 105.035 113.694 105.17 113.416 105.269C113.139 105.365 112.819 105.413 112.455 105.413ZM113.039 104.007C113.338 104.007 113.603 103.948 113.832 103.83C114.062 103.709 114.242 103.546 114.373 103.342C114.503 103.138 114.569 102.907 114.569 102.649V101.869C114.505 101.911 114.417 101.949 114.306 101.984C114.197 102.016 114.075 102.046 113.938 102.075C113.801 102.1 113.663 102.124 113.526 102.147C113.389 102.166 113.265 102.183 113.153 102.199C112.914 102.234 112.705 102.29 112.527 102.367C112.348 102.443 112.21 102.547 112.111 102.677C112.012 102.805 111.963 102.964 111.963 103.156C111.963 103.433 112.063 103.645 112.264 103.792C112.468 103.935 112.726 104.007 113.039 104.007ZM117.364 105.274V97.9289H119.339V99.2104H119.416C119.549 98.7545 119.774 98.4102 120.09 98.1775C120.405 97.9416 120.769 97.8237 121.18 97.8237C121.282 97.8237 121.392 97.83 121.51 97.8428C121.628 97.8555 121.732 97.8731 121.821 97.8954V99.703C121.725 99.6743 121.593 99.6488 121.424 99.6265C121.255 99.6041 121.1 99.593 120.96 99.593C120.66 99.593 120.393 99.6583 120.157 99.7891C119.924 99.9166 119.739 100.095 119.602 100.325C119.468 100.554 119.401 100.819 119.401 101.118V105.274H117.364ZM126.341 97.9289V99.4591H121.918V97.9289H126.341ZM122.922 96.1691H124.959V103.017C124.959 103.205 124.988 103.352 125.045 103.457C125.103 103.559 125.182 103.631 125.284 103.672C125.39 103.713 125.511 103.734 125.648 103.734C125.744 103.734 125.839 103.726 125.935 103.71C126.03 103.691 126.104 103.677 126.155 103.667L126.475 105.183C126.373 105.215 126.23 105.252 126.045 105.293C125.86 105.338 125.635 105.365 125.371 105.374C124.88 105.394 124.449 105.328 124.079 105.178C123.713 105.029 123.427 104.796 123.223 104.48C123.019 104.165 122.919 103.766 122.922 103.285V96.1691Z" fill="white"/>
<path d="M89.1597 88.0744C90.8896 88.0744 92.292 86.672 92.292 84.9421C92.292 83.2122 90.8896 81.8098 89.1597 81.8098C87.4297 81.8098 86.0273 83.2122 86.0273 84.9421C86.0273 86.672 87.4297 88.0744 89.1597 88.0744Z" stroke="white" stroke-width="1.28415" stroke-miterlimit="10" stroke-linecap="round"/>
<path d="M87.813 69.6736H106.761" stroke="white" stroke-width="1.28373" stroke-miterlimit="10" stroke-linecap="round"/>
<path d="M89.4717 73.4631H105.933" stroke="white" stroke-width="1.28373" stroke-miterlimit="10" stroke-linecap="round"/>
<path d="M88.6172 81.8086H100.89C102.234 81.8086 103.431 80.9547 103.868 79.6828L108.926 64.9673C109.363 63.6955 110.559 62.8416 111.904 62.8416H115.584" stroke="white" stroke-width="1.28415" stroke-miterlimit="10" stroke-linecap="round"/>
<path d="M89.1599 85.3945C89.4097 85.3945 89.6123 85.192 89.6123 84.9421C89.6123 84.6923 89.4097 84.4897 89.1599 84.4897C88.9101 84.4897 88.7075 84.6923 88.7075 84.9421C88.7075 85.192 88.9101 85.3945 89.1599 85.3945Z" stroke="white" stroke-width="0.428059" stroke-miterlimit="10" stroke-linecap="round"/>
<path d="M100.547 88.0744C102.277 88.0744 103.68 86.672 103.68 84.9421C103.68 83.2122 102.277 81.8098 100.547 81.8098C98.8174 81.8098 97.415 83.2122 97.415 84.9421C97.415 86.672 98.8174 88.0744 100.547 88.0744Z" stroke="white" stroke-width="1.28415" stroke-miterlimit="10" stroke-linecap="round"/>
<path d="M100.547 85.3945C100.797 85.3945 100.999 85.192 100.999 84.9421C100.999 84.6923 100.797 84.4897 100.547 84.4897C100.297 84.4897 100.095 84.6923 100.095 84.9421C100.095 85.192 100.297 85.3945 100.547 85.3945Z" stroke="white" stroke-width="0.428059" stroke-miterlimit="10" stroke-linecap="round"/>
<path d="M104.498 77.8485H88.0143C87.4625 77.8485 86.9781 77.4658 86.8265 76.9091L84.0305 66.6674C83.8908 66.1566 84.2567 65.6472 84.7635 65.6472H105.895" stroke="white" stroke-width="1.28415" stroke-miterlimit="10" stroke-linecap="round"/>
<path d="M80.7959 90.0297C80.7959 90.0297 92.8421 85.9535 109.098 90.0297" stroke="white" stroke-width="0.856107" stroke-miterlimit="10" stroke-linecap="round"/>
<path fill-rule="evenodd" clip-rule="evenodd" d="M266.949 105.97C268.914 105.805 270.865 109.879 271.3 115.081C271.735 120.282 270.504 124.627 268.539 124.792C266.574 124.958 264.623 120.884 264.188 115.682C263.738 110.481 264.983 106.136 266.949 105.97Z" fill="#F1CF00"/>
<path fill-rule="evenodd" clip-rule="evenodd" d="M266.154 104.723H266.199C266.904 104.648 267.549 105.159 267.624 105.865L269.754 124.537C269.829 125.243 269.319 125.89 268.614 125.98H268.569C261.953 126.732 256.042 122.598 255.367 116.734C254.706 110.856 259.537 105.474 266.154 104.723Z" fill="#9F0B0F"/>
<path fill-rule="evenodd" clip-rule="evenodd" d="M264.068 105.129L266.784 126.055C267.369 126.07 267.969 126.04 268.569 125.965H268.614C269.319 125.875 269.829 125.228 269.754 124.522L267.624 105.85C267.549 105.144 266.904 104.633 266.199 104.708H266.154C265.434 104.798 264.728 104.948 264.068 105.129Z" fill="#9DC6C6"/>
<path fill-rule="evenodd" clip-rule="evenodd" d="M247.67 97.4315L233.327 93.7483C232.577 93.5529 231.827 94.0039 231.632 94.7556L231.257 96.2138C231.062 96.9505 231.512 97.7172 232.262 97.9126L246.605 101.596C247.34 101.791 248.105 101.34 248.3 100.589L248.675 99.1303C248.87 98.3786 248.42 97.6119 247.67 97.4315Z" fill="black"/>
<path d="M188.813 198.336C188.198 199.674 187.538 200.997 187.238 202.44C186.938 203.883 187.028 205.462 187.853 206.679C189.413 208.995 192.729 209.055 195.504 208.874C196.87 208.784 198.235 208.694 199.6 208.604C201.356 208.483 203.381 208.213 204.251 206.679C205.031 205.326 204.491 203.628 204.041 202.124C203.021 198.742 202.526 195.194 202.571 191.661C202.586 190.609 202.631 189.526 202.241 188.549C201.701 187.181 200.35 186.279 198.925 185.903C195.73 185.031 193.314 185.106 192.444 188.188C191.484 191.661 190.328 195.044 188.813 198.336Z" fill="#191213"/>
<path d="M199.69 150.755C200.396 151.537 201.131 152.364 201.386 153.386C201.626 154.333 201.416 155.34 201.146 156.272C199.93 160.407 197.23 164.135 196.99 168.434C196.915 169.727 197.08 171.035 196.825 172.313C196.555 173.741 195.805 175.019 195.054 176.282C194.079 177.92 193.104 179.559 192.129 181.213C191.529 182.235 190.899 183.332 190.974 184.52C191.109 186.745 193.539 188.023 195.655 188.729C196.885 189.135 198.415 189.436 199.315 188.519C199.69 188.143 199.87 187.617 200.035 187.121C203.711 176.207 207.387 165.277 211.048 154.363C211.963 151.627 212.878 148.635 211.873 145.929C210.763 142.968 207.672 141.299 204.821 139.916C202.181 138.623 199.54 137.315 196.9 136.022C194.589 134.88 191.454 133.888 189.758 135.827C187.388 138.533 189.683 140.758 191.604 142.201C194.604 144.426 197.17 148.004 199.69 150.755Z" fill="#2E4C5E"/>
<path d="M194.259 199.313C193.344 201.628 192.398 204.064 192.668 206.544C192.728 207.085 192.864 207.657 193.254 208.032C193.584 208.363 194.049 208.483 194.499 208.604C202.21 210.663 210.387 210.979 218.234 209.521C219.374 209.31 220.544 209.04 221.459 208.333C222.374 207.627 222.929 206.334 222.479 205.266C221.909 203.958 220.244 203.658 218.819 203.492C216.283 203.207 213.703 202.801 211.482 201.553C209.262 200.305 207.461 198.02 207.431 195.48C207.416 193.54 208.272 191.195 206.801 189.932C206.111 189.331 205.121 189.241 204.191 189.18C201.145 188.985 199.54 188.324 197.694 190.564C196.059 192.533 195.189 196.908 194.259 199.313Z" fill="#281B1C"/>
<path d="M155.401 71.6191C148.845 83.9766 145.529 97.7472 142.274 111.352C141.989 112.555 141.704 113.818 142.034 115.006C142.364 116.193 143.534 117.246 144.749 116.99C144.764 118.163 144.779 119.335 144.809 120.508C146.445 122.883 149.37 124.101 152.236 124.341C155.101 124.582 157.967 123.98 160.788 123.394C166.879 122.101 172.97 120.808 179.076 119.516C180.306 119.26 181.627 118.929 182.407 117.952C183.187 116.96 182.902 115.126 181.657 114.915C185.977 114.134 187.793 109.037 188.798 104.753C189.803 100.453 190.823 96.1536 191.829 91.8541C193.434 85.0289 195.054 78.1286 195.144 71.108C195.219 65.9214 194.709 59.9832 198.385 56.3301C199.54 55.1876 201.07 54.3006 201.641 52.7822C202.511 50.452 200.695 48.0617 199.015 46.2277C196.825 43.8524 194.634 41.4771 192.444 39.0868C192.084 38.6959 191.679 38.29 191.169 38.2599C190.553 38.2148 190.058 38.7109 189.638 39.1619C186.443 42.6347 184.402 44.0027 180.246 46.0322C176.571 47.8362 173.165 50.1664 170.059 52.8424C164.418 57.6982 158.207 64.5835 155.401 71.6191Z" fill="#A11211"/>
<path d="M167.104 80.8647C166.219 88.607 168.109 97.0858 173.84 102.363C177.696 105.91 182.902 107.669 188.108 108.241C193.314 108.812 198.55 108.286 203.756 107.744C204.086 107.143 204.401 106.557 204.732 105.956C205.977 106.391 207.222 106.827 208.467 107.263C208.917 106.722 209.367 106.181 209.818 105.64C210.253 106.963 211.828 107.79 213.163 107.414C213.583 103.821 214.633 100.303 216.269 97.0708C206.817 95.2066 197.23 93.2823 188.603 88.9978C187.238 88.3213 185.708 87.5546 184.237 87.9906C185.378 81.6916 185.693 75.2272 185.153 68.853C184.898 65.8163 184.387 62.6292 182.437 60.284C173.285 49.2946 167.674 75.7985 167.104 80.8647Z" fill="#A11211"/>
<path d="M185.647 64.8992C185.407 63.426 185.122 61.9226 184.477 60.5846C183.802 59.1865 182.331 57.8486 180.846 58.3447C179.046 58.946 179.001 61.4415 179.316 63.3057C180.201 68.7628 181.101 74.22 181.986 79.6771C182.617 83.5557 183.247 87.6147 181.986 91.343C182.812 91.2528 183.652 91.1777 184.492 91.0875C184.552 92.0045 184.597 92.9366 184.657 93.8536C191.093 95.7328 197.724 96.9655 204.401 97.5218C204.266 95.0563 201.22 94.0791 198.82 93.5078C195.939 92.8464 192.969 91.9444 190.313 90.6064C187.027 88.9377 187.447 88.3363 187.402 84.578C187.312 77.9933 186.727 71.3937 185.647 64.8992Z" fill="#CA0007"/>
<path d="M195.475 55.804C196.9 54.7667 198.205 53.5641 199.36 52.2261C198.205 50.7829 197.05 49.3246 195.88 47.8814C195.7 47.6559 195.52 47.4304 195.265 47.3101C194.785 47.0846 194.199 47.2951 193.809 47.6409C192.744 48.5579 192.624 50.2266 193.134 51.5195C193.644 52.8274 194.665 53.8497 195.655 54.8419" fill="#CA0007"/>
<path d="M182.001 114.089C180.816 115.141 179.061 115.126 177.471 115.051C176.705 115.006 175.895 114.961 175.235 114.555C174.575 114.149 174.17 113.232 174.545 112.57C174.92 111.939 175.76 111.803 176.495 111.773C177.546 111.713 178.626 111.698 179.616 111.337C180.606 110.977 181.521 110.21 181.731 109.173C182.557 108.707 183.682 109.323 183.982 110.21C184.282 111.112 183.907 112.119 183.277 112.826C182.647 113.532 181.791 113.983 180.966 114.434" fill="#CA0007"/>
<path d="M152.581 132.369C156.662 134.714 161.478 135.301 166.144 135.842C171.35 136.443 176.556 137.06 181.762 137.661C188.963 138.503 196.975 139.781 201.386 145.554C201.836 146.155 202.316 146.831 203.036 147.012C203.831 147.207 204.611 146.726 205.406 146.501C206.186 146.275 207.312 146.516 207.387 147.328C206.532 148.094 206.066 149.267 206.141 150.424C206.742 150.319 207.327 150.214 207.927 150.124C208.272 151.552 207.342 152.95 206.547 154.183C204.071 158.061 202.556 162.526 202.151 167.111C201.866 170.359 202.076 173.846 200.38 176.643C199.615 177.905 198.505 178.928 197.71 180.191C196.99 181.333 196.555 182.656 196.465 184.009C196.134 188.504 200.275 192.894 204.746 192.533C209.337 192.157 212.428 187.767 214.648 183.723C221.429 171.351 226.38 157.836 228.001 143.825C228.271 141.495 228.436 139.089 227.731 136.864C226.14 131.813 220.724 129.182 215.818 127.243C207.492 123.936 199.03 120.974 190.478 118.343C188.153 117.621 185.782 116.93 183.352 116.78C181.192 116.644 179.016 116.915 176.871 117.201C168.604 118.283 160.322 119.38 152.056 120.463C148.215 120.974 145.124 120.343 146.49 125.063C147.345 128.145 149.835 130.791 152.581 132.369Z" fill="#3D5E77"/>
<path d="M208.346 131.587C210.807 132.535 213.342 133.542 215.278 135.346C219.899 139.706 219.494 147.207 217.528 153.251C215.548 159.294 212.322 165.142 212.367 171.501C213.312 172.343 214.648 171.08 215.233 169.968C219.524 161.805 222.299 152.845 223.394 143.674C223.679 141.254 223.815 138.638 222.524 136.579C221.414 134.805 219.449 133.767 217.573 132.85C207.986 128.16 195.834 121.575 185.137 120.418C184.852 125.183 204.341 130.039 208.346 131.587Z" fill="#4A6D82"/>
<path d="M221.549 106.091C222.494 106.121 223.47 106.151 224.4 105.925C227.941 105.084 229.936 101.025 233.417 100.002C233.627 99.9421 233.852 99.882 234.077 99.9271C234.392 99.9872 234.632 100.228 234.857 100.468C235.427 101.1 235.922 101.806 236.597 102.317C237.272 102.829 238.233 103.084 238.983 102.693C239.733 102.302 240.003 101.1 239.313 100.589C239.628 101.34 240.633 101.716 241.368 101.355C242.103 100.994 242.418 99.9872 242.028 99.2656C242.373 99.8369 243.109 100.153 243.769 100.002C244.429 99.8519 244.954 99.2506 245.014 98.5741C245.104 97.5819 244.324 96.7701 243.664 96.0184C242.703 94.936 241.893 93.7183 240.888 92.666C239.883 91.6287 238.608 90.7417 237.167 90.5763C236.027 90.4561 234.887 90.7868 233.792 91.1626C231.346 92.0045 228.976 93.0719 226.725 94.3347C224.925 95.3419 223.2 96.4694 221.309 97.2662C219.419 98.063 217.303 98.514 215.293 98.078C214.048 97.8074 212.262 104.512 212.818 105.459C213.298 106.271 215.578 105.925 216.508 105.94C218.189 105.986 219.869 106.031 221.549 106.091Z" fill="#EDB38C"/>
<path d="M228.826 28.2177C229.726 29.691 231.797 30.2021 232.502 31.7656C230.011 32.7277 227.971 34.8324 227.086 37.358C226.036 40.3647 226.456 44.0479 224.295 46.3931C222.36 48.4978 219.059 48.6181 216.284 47.9416C213.508 47.265 210.883 45.9271 208.047 45.6414C204.506 45.2656 200.831 46.6336 198.385 49.2194C197.815 49.8207 197.14 50.5574 196.315 50.407C195.745 50.3018 195.354 49.8057 195.009 49.3547C193.644 47.5206 192.279 45.6715 190.914 43.8374C192.864 41.7027 193.959 38.8012 193.914 35.9148C193.869 33.6598 193.179 31.48 193.029 29.2249C192.459 21.0317 199.54 13.7556 207.492 11.8313C213.703 10.3129 224.13 10.9443 229.516 14.8981C234.902 18.8218 226.006 23.6626 228.826 28.2177Z" fill="#EDB38C"/>
<path d="M223.59 19.4532C223.965 20.4304 222.6 21.167 221.55 21.167C219.509 21.167 217.544 20.3552 215.519 20.1898C213.478 20.0245 211.078 20.7611 210.418 22.6854C209.967 23.9783 210.418 25.3914 210.598 26.7444C210.763 28.0974 210.448 29.7812 209.172 30.2773C208.047 28.8341 208.437 26.5189 207.072 25.3012C205.917 24.2789 204.101 24.6247 202.691 25.2561C201.506 25.7823 200.351 26.5189 199.765 27.6765C198.4 30.3825 200.891 33.75 199.885 36.6063C199.555 37.5685 198.865 38.3502 198.175 39.0869C197.32 39.9889 196.42 40.8909 195.265 41.3719C194.124 41.853 192.669 41.8079 191.769 40.951C190.239 39.5078 191.079 36.9822 190.689 34.9076C190.284 32.7277 188.423 31.0289 188.018 28.8341C187.793 27.6314 188.048 26.3836 188.318 25.196C189.008 22.1292 189.863 19.0473 191.499 16.3563C194.184 11.9515 198.82 8.95988 203.786 7.59184C208.752 6.2238 214.033 6.3591 219.104 7.23104C221.325 7.60687 223.545 8.13304 225.48 9.29062C227.746 10.6436 229.816 12.9137 232.442 12.6731C231.737 13.3196 230.897 13.8006 229.981 14.0712C231.197 14.6425 232.307 15.4543 233.207 16.4465C232.862 17.0328 232.187 17.3485 231.527 17.3936C232.232 18.5813 231.767 20.5206 230.191 20.701C229.081 20.8212 227.836 19.6035 226.696 19.4382C226.981 19.5885 227.281 19.9643 227.566 20.1447C226.831 20.3702 223.98 20.4604 223.59 19.4532Z" fill="#9E5E32"/>
<path d="M205.601 32.0663C205.616 32.2016 205.421 32.2767 205.301 32.2016C205.181 32.1264 205.136 31.9761 205.106 31.8558C204.971 31.3447 204.851 30.8035 205.031 30.3224C205.211 29.8263 205.827 29.4655 206.277 29.7511C206.637 28.8942 206.367 27.8269 205.661 27.2406C204.941 26.6543 203.846 26.6091 203.081 27.1504C202.466 27.5713 202.121 28.2779 201.866 28.9694C201.656 29.5407 201.476 30.157 201.611 30.7433C201.716 31.2394 202.016 31.6604 202.316 32.0813C202.661 32.5624 203.006 33.0284 203.336 33.5095C203.666 33.9755 204.086 34.4716 204.641 34.4867C205.211 34.5017 205.676 33.9755 205.782 33.4193C205.887 32.8631 205.721 32.2918 205.526 31.7506" fill="#C19272"/>
<path d="M227.086 30.0518C228.001 29.6309 228.991 29.1498 229.981 29.3152C231.497 29.5708 232.397 31.2695 232.322 32.7879C232.247 34.3213 231.437 35.7044 230.656 37.0273C229.321 39.2673 227.986 41.5223 226.621 43.7473C225.705 45.2506 224.715 46.784 223.215 47.7011C221.355 48.8436 218.954 48.7985 216.884 48.122C214.813 47.4305 212.983 46.1676 211.183 44.9199C211.258 43.7473 212.428 43.0106 213.223 42.1537C214.783 40.5001 215.098 38.0045 214.873 35.7345C214.513 32.1866 216.569 33.0435 219.404 32.5023C222.075 32.0212 224.655 31.1944 227.086 30.0518Z" fill="#CEEAE8"/>
<path d="M208.167 28.6987C210.822 30.6531 213.583 32.427 216.464 34.0205C216.914 34.2761 217.334 33.5695 216.869 33.314C213.988 31.7204 211.228 29.9465 208.572 27.9921C208.152 27.6915 207.747 28.398 208.167 28.6987Z" fill="#CEEAE8"/>
<path d="M199.586 36.0201C203.981 38.9817 208.287 42.0635 212.518 45.2506C212.938 45.5663 213.343 44.8598 212.923 44.5441C208.692 41.357 204.386 38.2751 199.991 35.3135C199.556 35.0279 199.15 35.7345 199.586 36.0201Z" fill="#CEEAE8"/>
<path d="M217.154 38.0195C217.214 37.2077 217.184 36.3358 217.649 35.6743C218.189 34.9226 219.179 34.6821 220.064 34.4416C221.669 34.0056 223.2 33.3592 224.64 32.5323C224.895 32.382 225.165 32.2316 225.45 32.2166C226.125 32.1865 226.59 32.9533 226.545 33.6298C226.5 34.3063 226.125 34.9076 225.84 35.5089L225.765 35.8697C225.81 36.005 225.93 36.0952 226.05 36.1854C226.575 36.6364 226.56 37.5234 226.125 38.0796C225.705 38.6359 224.985 38.8915 224.295 38.9366C223.845 38.9666 223.29 38.9817 223.065 39.3876C222.96 39.583 222.96 39.8085 222.96 40.019C222.9 42.1086 221.294 44.063 219.239 44.514C219.389 44.9499 219.449 45.4009 219.434 45.8519C219.419 46.0173 219.404 46.2127 219.269 46.318C219.059 46.4984 218.729 46.3781 218.489 46.2428C216.973 45.416 214.798 44.98 215.323 43.0256C215.803 41.2818 217.154 40.034 217.154 38.0195Z" fill="#B7CECC"/>
<path d="M202.781 34.7272C203.471 34.6671 204.176 34.6069 204.776 34.2311C205.346 33.8703 205.751 33.2689 206.082 32.6526C207.702 29.6309 208.077 25.7673 210.372 23.3469C213.178 20.3853 217.589 20.7762 221.475 20.7762C224.58 20.7762 227.671 20.4003 230.701 19.6487C231.257 19.5134 231.827 19.348 232.292 18.9872C233.117 18.3257 233.432 17.1231 233.462 16.0106C233.597 11.8163 230.641 8.26837 227.506 5.90812C222 1.77393 215.248 -0.31571 208.587 0.060125C201.926 0.43596 195.414 3.29231 190.313 8.02784C187.613 10.5384 185.242 13.7405 184.492 17.559C184.027 19.9193 184.222 22.3697 184.522 24.76C184.792 26.8647 185.167 28.9995 186.083 30.8786C189.248 37.2979 197.335 35.1481 202.781 34.7272Z" fill="#A11211"/>
<path d="M198.115 3.2021C193.959 4.6453 189.983 7.02058 187.403 10.5835C184.822 14.1615 183.817 19.0473 185.573 23.1063C186.098 24.309 186.908 25.4816 188.138 25.9627C189.773 26.5941 191.664 25.7973 192.909 24.5495C195.385 22.069 196.705 18.6414 199.225 16.1158C201.281 14.0412 203.861 13.0941 206.022 11.275C207.882 9.71157 208.602 7.05065 207.312 4.79564C205.407 1.53339 201.071 2.16479 198.115 3.2021Z" fill="#CA0007"/>
<path d="M204.642 45.2656L204.687 45.6414L204.432 45.8669C203.952 46.1075 203.457 46.3029 202.931 46.4532C201.716 42.8602 200.891 39.1169 200.501 35.3435C200.456 34.9376 200.426 34.5317 200.576 34.1559C200.831 33.5094 202.391 32.6074 202.976 33.1937C203.337 33.5395 202.916 36.6514 202.961 37.2528C203.112 39.9738 203.682 42.6949 204.642 45.2656Z" fill="#681616"/>
<path d="M220.859 24.8051C222.479 24.0084 223.83 23.7829 225.615 23.8129C226.41 23.828 227.25 23.5874 227.265 22.6554L227.205 22.5652C226.665 22.49 226.155 22.6554 225.615 22.6554C224.925 22.6554 224.31 22.6103 223.62 22.7305C222.509 22.941 221.144 23.4521 220.514 24.4594C220.364 24.6849 220.649 24.9104 220.859 24.8051Z" fill="#4C3729"/>
<path d="M221.264 27.2255C222.314 26.5941 223.424 26.6091 224.58 26.4287C225.165 26.3385 225.87 26.2483 226.17 25.6921C226.23 25.5718 226.125 25.4215 225.99 25.4515C225.6 25.5568 225.285 25.7823 224.895 25.9025C224.475 26.0378 224.025 26.0829 223.604 26.1882C222.779 26.3836 221.954 26.7143 221.249 27.1954L221.264 27.2255Z" fill="#4C3729"/>
<path d="M224.01 26.2934C223.92 26.6542 223.695 27.5562 224.265 27.6615C224.895 27.7667 224.91 26.8046 224.835 26.4137L224.61 26.1882L224.55 26.1732L224.295 26.2784L224.22 26.5941L224.28 26.8196V27.1203L224.355 26.9699L224.34 26.7895C224.31 26.6242 224.28 26.4738 224.25 26.3085H224.01V26.2934Z" fill="#4C3729"/>
<path d="M222.69 27.6615C223.125 27.902 223.59 28.0073 224.085 27.9772C224.46 27.9471 225 27.872 225.18 27.4961L225.105 27.3759C224.79 27.3759 224.505 27.5863 224.19 27.6465C223.71 27.7367 223.245 27.6615 222.81 27.4661C222.66 27.4059 222.555 27.5863 222.69 27.6615Z" fill="#4C3729"/>
<path d="M223.68 28.5484C223.905 28.5484 224.115 28.5484 224.31 28.4281L224.25 28.2327C224.055 28.2327 223.875 28.2778 223.68 28.2778C223.5 28.2627 223.5 28.5333 223.68 28.5484Z" fill="#4C3729"/>
</g>
<defs>
<clipPath id="clip0_3281_7443">
<rect width="270.443" height="243.511" fill="white" transform="translate(49.3755)"/>
</clipPath>
</defs>
</svg>
