<svg width="170" height="36" viewBox="0 0 170 36" fill="none" xmlns="http://www.w3.org/2000/svg">
<path d="M38.8963 29V7.18182H53.3423V10.9851H43.5092V16.1839H52.3835V19.9872H43.5092V29H38.8963ZM54.2962 29V12.6364H58.6961V15.4915H58.8665C59.1648 14.4759 59.6656 13.7088 60.3687 13.1903C61.0718 12.6648 61.8815 12.402 62.7977 12.402C63.0249 12.402 63.27 12.4162 63.5327 12.4446C63.7955 12.473 64.0263 12.5121 64.2252 12.5618V16.5888C64.0121 16.5249 63.7174 16.468 63.341 16.4183C62.9646 16.3686 62.6201 16.3438 62.3076 16.3438C61.64 16.3438 61.0434 16.4893 60.5178 16.7805C59.9994 17.0646 59.5874 17.4624 59.282 17.9737C58.9837 18.4851 58.8346 19.0746 58.8346 19.7422V29H54.2962ZM71.4673 29.3196C69.7841 29.3196 68.3352 28.9787 67.1207 28.2969C65.9133 27.608 64.9829 26.6349 64.3295 25.3778C63.6761 24.1136 63.3494 22.6186 63.3494 20.8928C63.3494 19.2095 63.6761 17.7322 64.3295 16.4609C64.9829 15.1896 65.9027 14.1989 67.0887 13.4886C68.2819 12.7784 69.6811 12.4233 71.2862 12.4233C72.3657 12.4233 73.3707 12.5973 74.3011 12.9453C75.2386 13.2862 76.0554 13.8011 76.7514 14.4901C77.4545 15.179 78.0014 16.0455 78.392 17.0895C78.7826 18.1264 78.9779 19.3409 78.9779 20.733V21.9794H65.1605V19.1669H74.7059C74.7059 18.5135 74.5639 17.9347 74.2798 17.4304C73.9957 16.9261 73.6015 16.532 73.0973 16.2479C72.6001 15.9567 72.0213 15.8111 71.3608 15.8111C70.6718 15.8111 70.061 15.9709 69.5284 16.2905C69.0028 16.603 68.5909 17.0256 68.2926 17.5582C67.9943 18.0838 67.8416 18.6697 67.8345 19.3161V21.9901C67.8345 22.7997 67.9836 23.4993 68.2819 24.0888C68.5873 24.6783 69.017 25.1328 69.571 25.4524C70.125 25.772 70.7819 25.9318 71.5419 25.9318C72.0461 25.9318 72.5078 25.8608 72.9268 25.7188C73.3458 25.5767 73.7045 25.3636 74.0028 25.0795C74.3011 24.7955 74.5284 24.4474 74.6846 24.0355L78.8821 24.3125C78.669 25.321 78.2322 26.2017 77.5717 26.9545C76.9183 27.7003 76.0731 28.2827 75.0362 28.7017C74.0064 29.1136 72.8167 29.3196 71.4673 29.3196ZM93.7547 17.3026L89.5998 17.5582C89.5288 17.2031 89.3761 16.8835 89.1417 16.5994C88.9073 16.3082 88.5984 16.0774 88.2149 15.907C87.8385 15.7294 87.3875 15.6406 86.8619 15.6406C86.1588 15.6406 85.5657 15.7898 85.0828 16.0881C84.5998 16.3793 84.3583 16.7699 84.3583 17.2599C84.3583 17.6506 84.5146 17.9808 84.8271 18.2507C85.1396 18.5206 85.6758 18.7372 86.4358 18.9006L89.3974 19.4972C90.9883 19.8239 92.1744 20.3494 92.9556 21.0739C93.7369 21.7983 94.1275 22.75 94.1275 23.929C94.1275 25.0014 93.8115 25.9425 93.1794 26.7521C92.5544 27.5618 91.695 28.1939 90.6012 28.6484C89.5146 29.0959 88.261 29.3196 86.8406 29.3196C84.6744 29.3196 82.9485 28.8686 81.663 27.9666C80.3846 27.0575 79.6353 25.8217 79.4152 24.2592L83.8789 24.0249C84.0139 24.6854 84.3406 25.1896 84.8591 25.5376C85.3775 25.8786 86.0416 26.049 86.8512 26.049C87.6467 26.049 88.2859 25.8963 88.7689 25.5909C89.2589 25.2784 89.5075 24.8771 89.5146 24.3871C89.5075 23.9751 89.3335 23.6378 88.9926 23.375C88.6517 23.1051 88.1261 22.8991 87.4159 22.7571L84.5821 22.1925C82.9841 21.8729 81.7944 21.3189 81.0132 20.5305C80.239 19.7422 79.852 18.7372 79.852 17.5156C79.852 16.4645 80.136 15.5589 80.7042 14.799C81.2795 14.0391 82.0856 13.4531 83.1225 13.0412C84.1666 12.6293 85.3882 12.4233 86.7873 12.4233C88.8541 12.4233 90.4805 12.8601 91.6666 13.7337C92.8598 14.6072 93.5558 15.7969 93.7547 17.3026ZM99.7237 19.5398V29H95.1853V7.18182H99.5958V15.5234H99.7876C100.157 14.5575 100.753 13.8011 101.577 13.2543C102.401 12.7003 103.435 12.4233 104.677 12.4233C105.814 12.4233 106.805 12.6719 107.65 13.169C108.502 13.6591 109.163 14.3658 109.631 15.2891C110.107 16.2053 110.342 17.3026 110.334 18.581V29H105.796V19.3906C105.803 18.3821 105.548 17.5973 105.029 17.0362C104.518 16.4751 103.8 16.1946 102.877 16.1946C102.259 16.1946 101.712 16.326 101.236 16.5888C100.768 16.8516 100.398 17.2351 100.128 17.7393C99.8657 18.2365 99.7308 18.8366 99.7237 19.5398ZM131.442 14.8203H126.776C126.691 14.2166 126.517 13.6804 126.254 13.2116C125.991 12.7358 125.654 12.331 125.242 11.9972C124.83 11.6634 124.354 11.4077 123.814 11.2301C123.281 11.0526 122.703 10.9638 122.078 10.9638C120.948 10.9638 119.965 11.2443 119.127 11.8054C118.289 12.3594 117.639 13.169 117.177 14.2344C116.715 15.2926 116.485 16.5781 116.485 18.0909C116.485 19.6463 116.715 20.9531 117.177 22.0114C117.646 23.0696 118.299 23.8686 119.137 24.4084C119.975 24.9482 120.945 25.218 122.046 25.218C122.664 25.218 123.235 25.1364 123.761 24.973C124.294 24.8097 124.766 24.5717 125.178 24.2592C125.59 23.9396 125.931 23.5526 126.2 23.098C126.477 22.6435 126.669 22.125 126.776 21.5426L131.442 21.5639C131.321 22.5653 131.019 23.5312 130.536 24.4616C130.061 25.3849 129.418 26.2124 128.608 26.9439C127.806 27.6683 126.847 28.2436 125.732 28.6697C124.624 29.0888 123.37 29.2983 121.971 29.2983C120.025 29.2983 118.285 28.858 116.751 27.9773C115.224 27.0966 114.017 25.8217 113.129 24.1527C112.248 22.4837 111.808 20.4631 111.808 18.0909C111.808 15.7116 112.255 13.6875 113.15 12.0185C114.045 10.3494 115.259 9.07812 116.794 8.20455C118.328 7.32386 120.053 6.88352 121.971 6.88352C123.235 6.88352 124.407 7.06108 125.487 7.41619C126.573 7.77131 127.536 8.28977 128.374 8.97159C129.212 9.64631 129.894 10.4737 130.419 11.4538C130.952 12.4339 131.293 13.5561 131.442 14.8203ZM137.531 29.3089C136.487 29.3089 135.556 29.1278 134.74 28.7656C133.923 28.3963 133.277 27.853 132.801 27.1357C132.332 26.4112 132.098 25.5092 132.098 24.4297C132.098 23.5206 132.264 22.7571 132.598 22.1392C132.932 21.5213 133.387 21.0241 133.962 20.6477C134.537 20.2713 135.191 19.9872 135.922 19.7955C136.661 19.6037 137.435 19.4688 138.245 19.3906C139.196 19.2912 139.963 19.1989 140.546 19.1136C141.128 19.0213 141.551 18.8864 141.813 18.7088C142.076 18.5312 142.208 18.2685 142.208 17.9205V17.8565C142.208 17.1818 141.995 16.6598 141.568 16.2905C141.149 15.9212 140.553 15.7365 139.779 15.7365C138.962 15.7365 138.312 15.9176 137.829 16.2798C137.346 16.6349 137.027 17.0824 136.87 17.6222L132.673 17.2812C132.886 16.2869 133.305 15.4276 133.93 14.7031C134.555 13.9716 135.361 13.4105 136.348 13.0199C137.343 12.6222 138.493 12.4233 139.8 12.4233C140.709 12.4233 141.579 12.5298 142.41 12.7429C143.248 12.956 143.99 13.2862 144.637 13.7337C145.29 14.1811 145.805 14.7564 146.181 15.4595C146.558 16.1555 146.746 16.9901 146.746 17.9631V29H142.442V26.7308H142.314C142.051 27.2422 141.7 27.6932 141.259 28.0838C140.819 28.4673 140.29 28.7692 139.672 28.9893C139.054 29.2024 138.34 29.3089 137.531 29.3089ZM138.831 26.1768C139.498 26.1768 140.088 26.0455 140.599 25.7827C141.11 25.5128 141.512 25.1506 141.803 24.696C142.094 24.2415 142.24 23.7266 142.24 23.1513V21.4148C142.098 21.5071 141.902 21.5923 141.654 21.6705C141.412 21.7415 141.139 21.8089 140.833 21.8729C140.528 21.9297 140.223 21.983 139.917 22.0327C139.612 22.0753 139.335 22.1143 139.086 22.1499C138.554 22.228 138.088 22.3523 137.691 22.5227C137.293 22.6932 136.984 22.924 136.764 23.2152C136.544 23.4993 136.433 23.8544 136.433 24.2805C136.433 24.8984 136.657 25.3707 137.105 25.6974C137.559 26.017 138.134 26.1768 138.831 26.1768ZM148.467 29V12.6364H152.867V15.4915H153.037C153.336 14.4759 153.836 13.7088 154.539 13.1903C155.243 12.6648 156.052 12.402 156.968 12.402C157.196 12.402 157.441 12.4162 157.703 12.4446C157.966 12.473 158.197 12.5121 158.396 12.5618V16.5888C158.183 16.5249 157.888 16.468 157.512 16.4183C157.135 16.3686 156.791 16.3438 156.478 16.3438C155.811 16.3438 155.214 16.4893 154.689 16.7805C154.17 17.0646 153.758 17.4624 153.453 17.9737C153.154 18.4851 153.005 19.0746 153.005 19.7422V29H148.467ZM168.466 12.6364V16.0455H158.612V12.6364H168.466ZM160.849 8.71591H165.388V23.9716C165.388 24.3906 165.452 24.7173 165.579 24.9517C165.707 25.179 165.885 25.3388 166.112 25.4311C166.346 25.5234 166.616 25.5696 166.922 25.5696C167.135 25.5696 167.348 25.5518 167.561 25.5163C167.774 25.4737 167.937 25.4418 168.051 25.4205L168.765 28.7976C168.537 28.8686 168.218 28.9503 167.806 29.0426C167.394 29.142 166.893 29.2024 166.304 29.2237C165.21 29.2663 164.251 29.1207 163.427 28.7869C162.611 28.4531 161.975 27.9347 161.52 27.2315C161.066 26.5284 160.842 25.6406 160.849 24.5682V8.71591Z" fill="#F0F3F2"/>
<path d="M8.45288 28.4855C9.99449 28.4855 11.2442 27.2358 11.2442 25.6942C11.2442 24.1525 9.99449 22.9028 8.45288 22.9028C6.91128 22.9028 5.66156 24.1525 5.66156 25.6942C5.66156 27.2358 6.91128 28.4855 8.45288 28.4855Z" stroke="#0AAD0A" stroke-width="1.14435" stroke-miterlimit="10" stroke-linecap="round"/>
<path d="M7.25259 12.0884H24.1377" stroke="#0AAD0A" stroke-width="1.14397" stroke-miterlimit="10" stroke-linecap="round"/>
<path d="M8.73038 15.4653H23.3993" stroke="#0AAD0A" stroke-width="1.14397" stroke-miterlimit="10" stroke-linecap="round"/>
<path d="M7.96906 22.902H18.9053C20.1031 22.902 21.1701 22.1411 21.5595 21.0077L26.0667 7.8943C26.4561 6.76089 27.522 6 28.7209 6H31.9997" stroke="#0AAD0A" stroke-width="1.14435" stroke-miterlimit="10" stroke-linecap="round"/>
<path d="M8.45291 26.0973C8.67555 26.0973 8.85604 25.9168 8.85604 25.6941C8.85604 25.4715 8.67555 25.291 8.45291 25.291C8.23026 25.291 8.04977 25.4715 8.04977 25.6941C8.04977 25.9168 8.23026 26.0973 8.45291 26.0973Z" stroke="#0AAD0A" stroke-width="0.381456" stroke-miterlimit="10" stroke-linecap="round"/>
<path d="M18.6003 28.4855C20.1419 28.4855 21.3916 27.2358 21.3916 25.6942C21.3916 24.1525 20.1419 22.9028 18.6003 22.9028C17.0586 22.9028 15.8089 24.1525 15.8089 25.6942C15.8089 27.2358 17.0586 28.4855 18.6003 28.4855Z" stroke="#0AAD0A" stroke-width="1.14435" stroke-miterlimit="10" stroke-linecap="round"/>
<path d="M18.6003 26.0973C18.823 26.0973 19.0034 25.9168 19.0034 25.6941C19.0034 25.4715 18.823 25.291 18.6003 25.291C18.3777 25.291 18.1972 25.4715 18.1972 25.6941C18.1972 25.9168 18.3777 26.0973 18.6003 26.0973Z" stroke="#0AAD0A" stroke-width="0.381456" stroke-miterlimit="10" stroke-linecap="round"/>
<path d="M22.1215 19.373H7.43246C6.94068 19.373 6.50905 19.0319 6.37397 18.5358L3.88236 9.40912C3.75783 8.95401 4.08393 8.5 4.5356 8.5H23.3667" stroke="#0AAD0A" stroke-width="1.14435" stroke-miterlimit="10" stroke-linecap="round"/>
<path d="M1 30.2282C1 30.2282 11.7347 26.5958 26.2211 30.2282" stroke="#0AAD0A" stroke-width="0.762901" stroke-miterlimit="10" stroke-linecap="round"/>
</svg>
